<svg width="352" height="11" viewBox="0 0 352 11" fill="none" xmlns="http://www.w3.org/2000/svg">
<path fill-rule="evenodd" clip-rule="evenodd" d="M11 0H0V11H11V0ZM2 1H1V4H2V1ZM10 1H9V4H10V1ZM1 5H2V10H1V5ZM10 5H9V10H10V5ZM5 9H6V10H5V9Z" fill="#F5E8D1"/>
<path fill-rule="evenodd" clip-rule="evenodd" d="M22 0H11V11H22V0ZM16 1H15V2H12V3H16V7H17V3H21V2H18V1H17V2H16V1ZM19 4H20V5H19V4ZM14 4H13V5H14V4ZM15 8H18V9H15V8ZM15 9V10H12V9H15ZM18 9H21V10H18V9Z" fill="#F5E8D1"/>
<path fill-rule="evenodd" clip-rule="evenodd" d="M25 0H22V6H23V7H22V11H23V10H24V11H31V10H32V11H33V7H32V6H33V0H30V1H29V0H28V1H27V0H26V1H25V0ZM30 9V10H31V9H30ZM25 9V8H26H27H28H29H30V9H29H28H27H26H25ZM25 9V10H24V9H25ZM23 2H24V3H23V2ZM24 3H25V4H26V5H25V6H24V5H23V4H24V3ZM30 3H31V4H32V5H31V6H30V5H29V4H30V3ZM31 3H32V2H31V3Z" fill="#F5E8D1"/>
<path fill-rule="evenodd" clip-rule="evenodd" d="M44 0H33V6H34V7H33V11H44V7H43V6H44V0ZM35 1H34V3H35H37V2H35V1ZM43 1H42V2H40V3H42H43V1ZM38 9H39V10H38V9ZM37 4H36V5H37V4ZM40 4H41V5H40V4Z" fill="#F5E8D1"/>
<path fill-rule="evenodd" clip-rule="evenodd" d="M55 0H44V1H49V2H48V11H51V2H50V1H55V0ZM55 2H54V11H55V2ZM53 11V2H52V11H53ZM47 11V2H46V11H47ZM45 11V2H44V11H45ZM49 8H50V9H49V8Z" fill="#F5E8D1"/>
<path fill-rule="evenodd" clip-rule="evenodd" d="M66 0H55V2H56V4H55V11H66V4H65V2H66V0ZM60 1H59V2H60V1ZM57 5H56V9H57V10H64V9H65V5H64V4H63V3H58V4H57V5ZM58 4H61V5H58V4ZM63 4V5H62V4H63ZM61 1H62V2H61V1Z" fill="#F5E8D1"/>
<path fill-rule="evenodd" clip-rule="evenodd" d="M77 0H66V5H69V6V7H68V6H66V11H71V9H72V11H77V7H76V6H74V5H77V0ZM69 2H67V3H69V2ZM76 2H74V3H76V2Z" fill="#F5E8D1"/>
<path fill-rule="evenodd" clip-rule="evenodd" d="M88 0H77V11H88V0ZM78 1H79V2H80V3H81V4H82V5H81H80H79H78V1ZM84 4H83V5H84H85H86H87V1H86V2H85V3H84V4ZM79 7H78V9H79V7ZM80 7H81V9H80V7ZM83 7H82V9H83V7ZM84 7H85V8H86V7H87V9H86H85H84V7Z" fill="#F5E8D1"/>
<path fill-rule="evenodd" clip-rule="evenodd" d="M99 0H88V11H93V9H94V11H99V0ZM90 2H89V3H90V4H91V5H92V4H91V3H90V2ZM98 2H97V3H96V4H95V5H96V4H97V3H98V2Z" fill="#F5E8D1"/>
<path fill-rule="evenodd" clip-rule="evenodd" d="M110 0H99V5H100V6H99V11H110V6H107V5H110V0ZM100 2H101V3H100V2ZM102 4H103V7H102V4ZM108 2H105V3H108V2ZM105 8V9H101V8H105Z" fill="#F5E8D1"/>
<path fill-rule="evenodd" clip-rule="evenodd" d="M114 0H110V11H121V0H117V1H116V0H115V1H114V0ZM114 2H111V6H114V2ZM113 4H112V5H113V4ZM117 2H120V6H117V2ZM118 4H119V5H118V4ZM119 8H120V9V10H111V9V8H112V9H119V8Z" fill="#F5E8D1"/>
<path fill-rule="evenodd" clip-rule="evenodd" d="M123 0H121V6H122V7H121V11H132V7H131V6H132V0H130V1H129V0H124V1H123V0ZM123 1V2H122V1H123ZM130 1V2H131V1H130ZM123 3H122V4H123V5H125V4H126V3H125V4H123V3ZM127 3H128V4H127V3ZM130 4V5H128V4H130ZM130 4V3H131V4H130ZM127 7H126V8H125V9H126V10H127V9H128V8H127V7ZM127 8V9H126V8H127Z" fill="#F5E8D1"/>
<path fill-rule="evenodd" clip-rule="evenodd" d="M143 0H132V5H133V6H132V11H143V6H142V5H143V0ZM139 1H140V2H139V1ZM139 2V3H138V2H139ZM137 5H138V6H139V7H136V6H137V5ZM137 2H136V1H135V2H136V3H137V2ZM141 9H134V10H141V9Z" fill="#F5E8D1"/>
<path fill-rule="evenodd" clip-rule="evenodd" d="M154 0H143V5H144V6H143V11H154V6H153V5H154V0ZM145 1H144V2H145V3H146V4H147V3H146V2H145V1ZM152 1H153V2H152V1ZM151 3V2H152V3H151ZM151 3V4H150V3H151ZM149 5H148V6H149V5ZM152 7H153V8H152V7ZM151 9V8H152V9H151ZM146 9H151V10H146V9ZM145 8H146V9H145V8ZM145 8H144V7H145V8Z" fill="#F5E8D1"/>
<path fill-rule="evenodd" clip-rule="evenodd" d="M165 0H154V11H159V5H160V11H165V0ZM157 2H156V3H157V2ZM163 2H162V3H163V2Z" fill="#F5E8D1"/>
<path fill-rule="evenodd" clip-rule="evenodd" d="M170 0H165V11H170V10H171V11H176V0H171V6H170V0ZM166 5H169V6H166V5ZM175 5H172V6H175V5Z" fill="#F5E8D1"/>
<path fill-rule="evenodd" clip-rule="evenodd" d="M187 0H176V2H178V3H176V11H181V9H182V11H187V3H185V2H187V0ZM177 4H178V5H177V4ZM186 4H185V5H186V4Z" fill="#F5E8D1"/>
<path fill-rule="evenodd" clip-rule="evenodd" d="M188 0H187V11H191V10H194V11H198V0H197V6H196V0H195V6H194V0H193V6H192V0H191V6H190V0H189V6H188V0ZM190 8V9H188V8V7H191V8H190ZM196 9V8H197V7H194V8V9H196Z" fill="#F5E8D1"/>
<path fill-rule="evenodd" clip-rule="evenodd" d="M209 0H198V11H209V0ZM201 1H200V2H199V3H200V4H201V3H202V2H201V1ZM202 5H203V6H202V5ZM204 5H205V6H204V5ZM205 2H206V1H207V2H208V3H207V4H206V3H205V2ZM200 7H199V10H200V9H208V8H200V7Z" fill="#F5E8D1"/>
<path fill-rule="evenodd" clip-rule="evenodd" d="M220 0H209V8H210V9H209V11H220V9H219V8H220V0ZM212 2H210V4H212V2ZM216 7H213V8H216V7ZM217 2H219V4H217V2ZM212 5H211V6H212V5ZM217 5H218V6H217V5Z" fill="#F5E8D1"/>
<path fill-rule="evenodd" clip-rule="evenodd" d="M221 0H220V11H231V0H230V1H229V0H222V1H221V0ZM225 1H226V2H225V1ZM227 5V4H225V7H229V4H228V5H227ZM224 4V7V8H229H230V4V3H221V4H224Z" fill="#F5E8D1"/>
<path fill-rule="evenodd" clip-rule="evenodd" d="M242 0H231V4H232V5H231V11H242V5H241V4H242V0ZM240 7H241V6V5H232V6V7H233V8H234V9H235V10H238V9H239V8H240V7ZM238 9H235V8H238V9ZM240 7H233V6H240V7ZM239 1H238V2H239V3H240V2H239V1ZM236 3H235V4H236V3ZM237 3H238V4H237V3ZM235 1H234V2H233V3H234V2H235V1Z" fill="#F5E8D1"/>
<path fill-rule="evenodd" clip-rule="evenodd" d="M243 0H242V6H243V7H242V11H253V7H252V6H253V0H252V2H251V0H244V2H243V0ZM247 3H246V5H247V3ZM249 3H248V5H249V3ZM244 8H245V7H250V8H251V9H252V10H243V9H244V8ZM249 8V9H248V8H249ZM247 8V9H246V8H247Z" fill="#F5E8D1"/>
<path fill-rule="evenodd" clip-rule="evenodd" d="M264 0H253V11H264V0ZM263 2H254V3H255V4H257V3H260V4H262V3H263V2ZM257 5H258V6H257V5ZM259 5H260V6H259V5ZM262 7V8H261V9V10H256V9V8H255V7H254V6H256V7H261V6H263V7H262ZM260 8V9H259V8H260ZM258 8V9H257V8H258Z" fill="#F5E8D1"/>
<path fill-rule="evenodd" clip-rule="evenodd" d="M275 0H264V11H275V0ZM268 2H266V3H265V4H266V3H268V4H269V3H268V2ZM270 5H269V6H265V7V8H266V9H267V10H272V9H273V8H274V7V6H270V5ZM273 8H272V9H267V8H266V7H273V8ZM271 2H273V3H271V2ZM271 3V4H270V3H271ZM273 3H274V4H273V3Z" fill="#F5E8D1"/>
<path fill-rule="evenodd" clip-rule="evenodd" d="M278 0H276V1H275V5H276V6H275V11H280V10H281V11H286V6H282V5H286V4H284V3H286V0H282V1H281V0H279V1H278V0ZM280 2H279V1H280V2ZM281 3H280V2H281V3ZM279 4V5H282V4V3H281V4H279ZM278 3H279V4H278V3ZM277 3H278V2H277V1H276V2H277V3ZM277 3H276V5H277V3ZM283 2H282V1H283V2ZM283 2H284V3H283V2ZM276 7H277V9H276V7ZM285 7H284V9H285V7ZM282 8H279V9H282V8Z" fill="#F5E8D1"/>
<path fill-rule="evenodd" clip-rule="evenodd" d="M297 0H286V11H297V0ZM290 2H288V3H287V4H288V3H290V4H291V3H290V2ZM292 5H291V6H287V7V8H288V9H289V10H294V9H295V8H296V7V6H292V5ZM295 8H294V9H289V8H288V7H295V8ZM293 2H295V3H293V2ZM293 3V4H292V3H293ZM295 3H296V4H295V3Z" fill="#F5E8D1"/>
<path fill-rule="evenodd" clip-rule="evenodd" d="M308 0H297V1H308V0ZM308 2H297V7H298V8H297V11H302V10H303V11H308V8H307V7H308V2ZM307 7V6H305V7H307ZM303 10V9H304V10H303ZM302 10H301V9H302V10ZM298 7H300V6H298V7ZM307 3H298V4H307V3Z" fill="#F5E8D1"/>
<path fill-rule="evenodd" clip-rule="evenodd" d="M319 0H308V1H310V2H309V3H308V11H319V2H318V3H317V2V1H319V0ZM312 8H315V9H312V8ZM317 7H315V8H317V7ZM317 7H318V6H317V7ZM312 3H315V4H312V3Z" fill="#F5E8D1"/>
<path fill-rule="evenodd" clip-rule="evenodd" d="M330 0H319V11H330V0ZM324 1H323V2H324V1ZM321 2H320V3H321V4H320V5H321V4H322V3H321V2ZM328 3H327V4H328V5H329V4H328V3ZM328 3H329V2H328V3ZM325 1H326V2H325V1ZM326 7H327V8H326V7ZM326 9V8H323V7H322V8H323V9H322V10H323V9H326ZM326 9H327V10H326V9Z" fill="#F5E8D1"/>
<path fill-rule="evenodd" clip-rule="evenodd" d="M341 0H330V11H333V10V8V7V6H338V7V8V10V11H341V0ZM337 11V10H334V11H337ZM331 1H334V2H331V1ZM340 3H337V4H340V3ZM337 1H340V2H337V1ZM331 3H334V4H331V3ZM337 7V8H334V7H337Z" fill="#F5E8D1"/>
<path fill-rule="evenodd" clip-rule="evenodd" d="M352 0H341V6H342V7H341V11H352V7H351V6H352V0ZM345 1H344V2H343V3H342V4H343V3H344V2H345V1ZM346 3H345V4H346V3ZM347 3H348V4H347V3ZM348 1H349V2H348V1ZM350 3H349V2H350V3ZM350 3H351V4H350V3ZM349 9H350V10H349V9ZM344 9V8H349V9H344ZM344 9V10H343V9H344Z" fill="#F5E8D1"/>
</svg>
